<?xml version="1.0" encoding="utf-8"?>
<!-- Generator: Adobe Illustrator 25.2.1, SVG Export Plug-In . SVG Version: 6.00 Build 0)  -->
<svg version="1.1" id="Layer_1" xmlns="http://www.w3.org/2000/svg" xmlns:xlink="http://www.w3.org/1999/xlink" x="0px" y="0px"
	 viewBox="0 0 567.5 170.8" style="enable-background:new 0 0 567.5 170.8;" xml:space="preserve">
<style type="text/css">
	.st0{display:none;}
	.st1{display:inline;fill:#4477F2;}
	.st2{display:inline;fill:#FFD21C;}
	.st3{display:inline;}
	.st4{fill:#FFD21C;}
	.st5{fill:#FFFFFF;}
	.st6{display:inline;fill:none;}
	.st7{display:inline;fill:#FFFFFF;}
	.st8{font-family:'FiraSans-Bold';}
	.st9{font-size:100px;}
</style>
<g id="Layer_1_1_" class="st0">
	<rect id="XMLID_1_" x="-93.9" y="-119.8" class="st1" width="841.9" height="595.3"/>
</g>
<g id="Layer_3" class="st0">
	
		<image style="display:inline;overflow:visible;enable-background:new    ;" width="1300" height="955" id="XMLID_31_" xlink:href="B8A71351DD7D8833.jpeg"  transform="matrix(0.2289 0 0 0.2289 145.4108 16.6215)">
	</image>
	
		<image style="display:inline;overflow:visible;enable-background:new    ;" width="661" height="730" id="XMLID_261_" xlink:href="B8A71351DD7D8831.jpeg"  transform="matrix(0.3464 0 0 0.3464 472.6846 16.6215)">
	</image>
	
		<image style="display:inline;overflow:visible;enable-background:new    ;" width="97" height="78" id="XMLID_448_" xlink:href="B8A71351DD7D8837.jpeg"  transform="matrix(2.652 0 0 2.652 -57.751 231.3125)">
	</image>
	
		<image style="display:inline;overflow:visible;enable-background:new    ;" width="1018" height="748" id="XMLID_512_" xlink:href="B8A71351DD7D8831.jpeg"  transform="matrix(0.1531 0 0 0.1531 266.1832 284.8326)">
	</image>
</g>
<g id="Layer_6" class="st0">
	<path id="XMLID_542_" class="st2" d="M-20.8,346.3c0,0-0.9-1.4,0.6-5c1.5-3.7,15.7-21.5,15.7-21.5l19.6-27c0,0,3.1-6,7.2-5.4
		s25.6,3.2,25.6,3.2l73.1,5.9l10.6,1.3l-2.5,6.8l-15.1,28l-17.1,28.9l-9.1,15.2L15,359.8l-30.8-9.3L-20.8,346.3z"/>
	<polygon id="XMLID_527_" class="st2" points="279.6,349.7 297.3,357 315.7,364.3 340.5,372.5 357.5,355.3 371.8,342.7 384.7,328.7 
		397.5,314.6 401,311.9 390,307.7 364.5,302.9 348.3,299.9 342.8,299 319.3,316.6 301.6,331.5 283.7,346.4 	"/>
	<path id="XMLID_543_" class="st2" d="M170.5,34.6l43,3.9l45.4,4l41.7,3.7l26.4,2.7l6.6,0.4l0.7,7.3l1.4,12.2l3.4,25.8l1.2,17.3
		l3.1,15.3l0.3,13.1l0.5,8.3l-10.9,0.1l-29.1,3.9l-36,4.4l-25.5,2.2l-15.6,1.2l-13.6,2.3l-10.7,2l-12.9-0.9l-7.8,1l-0.2-8.1l-2-9.6
		l-1.9-9.4l-0.7-25.1L176.4,90l-4.9-37.1C171.5,52.9,168.8,34.4,170.5,34.6z"/>
	<polygon id="XMLID_545_" class="st2" points="560.6,118.9 576.7,126.3 595.9,135.4 614.4,145.2 630.7,154.9 648.6,165.2 
		654.6,168.3 655.7,155.9 655.5,141.9 657.8,121.2 661.3,109.2 662.1,98.2 652.2,91 631.8,80.7 616.7,71.5 602.4,65.2 590.7,58.4 
		580.8,51.9 566.2,44.1 564.6,52.5 561.8,70.4 560.5,90.3 557.9,113.9 	"/>
</g>
<g id="Layer_4" class="st0">
	<g id="XMLID_37_" class="st3">
		<g id="XMLID_631_">
			<path id="XMLID_635_" class="st4" d="M161.5,28.3c13.9,2.8,28.1,2.7,42.2,4c14.7,1.3,29.1,3.8,43.9,4.6
				c14.9,0.8,29.9,1.6,44.8,2.6c7.5,0.5,14.9,1.1,22.3,1.9c3.9,0.4,7.8,0.8,11.6,1.3c4.1,0.5,11.3-0.2,10.9,5.6
				c-0.1,1.6,2.4,1.6,2.5,0c0.1-2.1,0-3.6-0.6-5.6c-0.1-0.4-0.5-0.8-0.9-0.9c-29.1-4.4-58.4-5.7-87.8-7.3
				c-14.5-0.8-28.6-2.8-43.1-4.4c-15.1-1.7-30.4-1.3-45.3-4.3C160.6,25.6,160,28,161.5,28.3L161.5,28.3z"/>
		</g>
	</g>
	<g id="XMLID_38_" class="st3">
		<g id="XMLID_625_">
			<path id="XMLID_629_" class="st4" d="M338.6,50.1c1.6,0,1.6-2.5,0-2.5S337,50.1,338.6,50.1L338.6,50.1z"/>
		</g>
	</g>
	<g id="XMLID_39_" class="st3">
		<g id="XMLID_619_">
			<path id="XMLID_623_" class="st4" d="M337.6,49.8c2.8,17.1,4.3,34.2,5.6,51.5c0.2,3,0.8,5.8,1.6,8.7c1.1,3.8,1.2,7.4,1.2,11.3
				c0.1,8.8,1.2,17.6,2.2,26.4c0.2,1.6,2.7,1.6,2.5,0c-1.1-9.1-2.1-18.2-2.2-27.4c-0.1-7.2-2.5-13.6-2.9-20.7
				c-1.1-17-2.8-33.8-5.6-50.6C339.7,47.5,337.3,48.2,337.6,49.8L337.6,49.8z"/>
		</g>
	</g>
	<g id="XMLID_40_" class="st3">
		<g id="XMLID_613_">
			<path id="XMLID_617_" class="st4" d="M348.7,149.4c-0.2-0.3-0.3-0.4-0.3-0.1c0,0.2,0,0.3,0.1,0.5c0,0.3,0.1,0.7,0.1,1
				c0.1,0.7,0.1,1.4,0.2,2.1c0.1,1.6,2.6,1.6,2.5,0c-0.1-1.1-0.2-2.2-0.3-3.3c-0.1-0.9-0.1-1.9-1-2.4
				C348.5,146.5,347.3,148.7,348.7,149.4L348.7,149.4z"/>
		</g>
	</g>
	<g id="XMLID_41_" class="st3">
		<g id="XMLID_607_">
			<path id="XMLID_611_" class="st4" d="M348.9,152c-28.1,5.3-56.9,7.9-85.3,11.3c-14.6,1.8-29.1,3.5-43.7,5.3
				c-6.9,0.8-13.9,1.7-20.8,2.5c-3.6,0.4-7.3,0.9-10.9,1.3c-2,0.2-4,0.5-6,0.7c-0.8,0.1-8.5,1.1-6.3-2.3c0.9-1.4-1.3-2.6-2.2-1.3
				c-1.8,2.9,0.1,5.8,3.3,6.3c3.7,0.7,8.4-0.7,12.1-1.2c4.3-0.5,8.6-1,12.9-1.6c16.9-2.1,33.7-4.1,50.6-6.2
				c32.3-3.9,64.9-6.7,96.9-12.7C351.1,154.1,350.4,151.7,348.9,152L348.9,152z"/>
		</g>
	</g>
	<g id="XMLID_42_" class="st3">
		<g id="XMLID_601_">
			<path id="XMLID_605_" class="st4" d="M174.3,170.5c1.6,0,1.6-2.5,0-2.5S172.7,170.5,174.3,170.5L174.3,170.5z"/>
		</g>
	</g>
	<g id="XMLID_43_" class="st3">
		<g id="XMLID_595_">
			<path id="XMLID_599_" class="st4" d="M160.4,28.1c-0.1,5.7,1.7,11.4,2.3,17.1c0.6,5.9,0.9,11.7,1.2,17.6c0.6,11,0,23.1,2.9,33.8
				c0.4,1.6,2.8,0.9,2.4-0.7c-2.9-11-2.2-23.7-2.9-35c-0.3-5.2-0.5-10.5-1.1-15.7c-0.6-5.7-2.4-11.4-2.3-17.1
				C162.9,26.5,160.4,26.5,160.4,28.1L160.4,28.1z"/>
		</g>
	</g>
	<g id="XMLID_45_" class="st3">
		<g id="XMLID_589_">
			<path id="XMLID_593_" class="st4" d="M166.8,95.5c-0.6,6.2,0.5,12,1.6,18.1c1.1,6.6,1.2,13.2,1.4,19.9c0.3,12.5,0.8,25,3.4,37.2
				c0.3,1.6,2.7,0.9,2.4-0.7c-2.7-12.7-3.1-25.5-3.3-38.4c-0.1-5-0.1-10-0.8-14.9c-1-7.1-2.7-14-2.1-21.2
				C169.5,93.9,167,93.9,166.8,95.5L166.8,95.5z"/>
		</g>
	</g>
	<g id="XMLID_47_" class="st3">
		<g id="XMLID_583_">
			<path id="XMLID_587_" class="st4" d="M236.7,168.9c0,1.7,0.4,3.7,0.1,5.3c-0.4,2.8-0.4,2.3-2.9,3c-3.9,1.2-8.5,1.4-12.6,2.1
				c-8.1,1.3-16.1,2.5-24.2,3.7c-0.6,0.1-0.9,0.7-0.9,1.2c-0.7,5.9,9.3,11.2,13.6,13.7c3.3,2,6.9,4,10.6,5.3
				c3.2,1.1,6.1,0.6,9.3,0.1c10.1-1.5,20.4-2.6,30.3-5.1c9.1-2.2,17.6-5.9,26.8-7.5c9.8-1.7,19.5-3.3,29.1-5.6
				c4.2-1,10.3-1.5,14-3.7c1.2-0.7,2-1.4,2-3c-0.1-2.5-2.3-3.3-4.2-4.1c-4.8-2-10.2-3.3-15.2-5c-4.3-1.4-8.9-3.5-13.4-4.1
				c-3.9-0.5-7.7,1-11.2,2.5c0.5,0.3,1,0.6,1.5,0.9c0-0.4,0-0.8,0-1.3c0.5-1.5-1.9-2.2-2.4-0.7c-0.4,1.3-0.4,1.3,0,2.6
				c0.2,0.6,0.9,1.1,1.5,0.9c4.8-2,8.7-2.9,13.9-1.5c4.5,1.2,8.9,2.9,13.3,4.3c2,0.7,13.8,3,12.7,6.3c-0.2,0.7-6.6,1.8-7.4,2
				c-1.9,0.5-3.7,0.9-5.6,1.4c-8.7,2.1-17.5,3.7-26.4,5.2c-8.7,1.5-16.8,4.3-25.2,6.8c-8.5,2.5-17.3,3.6-26,5
				c-4.5,0.7-9.8,2.3-14.3,1.8c-4.1-0.5-8.1-3.1-11.6-5.1c-3.5-2.1-8.3-4.6-10.8-7.9c-2.8-3.5-0.4-3.3,2.6-3.8
				c2.3-0.3,4.5-0.7,6.8-1c9.4-1.4,18.7-3,28.1-4.6c0.5-0.1,0.9-0.7,0.9-1.2c-0.1-3-0.1-5.9-0.2-8.9
				C239.2,167.2,236.7,167.2,236.7,168.9L236.7,168.9z"/>
		</g>
	</g>
	<g id="XMLID_72_" class="st3">
		<g id="XMLID_577_">
			<path id="XMLID_581_" class="st4" d="M289.4,164.6c0-0.2,0.1-0.4,0.1-0.6c0.1-0.7-0.2-1.3-0.9-1.5c-0.6-0.2-1.4,0.2-1.5,0.9
				c0,0.2-0.1,0.4-0.1,0.6c-0.1,0.7,0.2,1.3,0.9,1.5C288.5,165.6,289.3,165.2,289.4,164.6L289.4,164.6z"/>
		</g>
	</g>
	<g id="XMLID_79_" class="st3">
		<g id="XMLID_571_">
			<path id="XMLID_575_" class="st4" d="M288.3,164c1.6,0,1.6-2.5,0-2.5C286.7,161.5,286.7,164,288.3,164L288.3,164z"/>
		</g>
	</g>
	<g id="XMLID_86_" class="st3">
		<g id="XMLID_564_">
			<path id="XMLID_568_" class="st4" d="M288.3,163.9c1.6,0,1.6-2.5,0-2.5C286.7,161.4,286.7,163.9,288.3,163.9L288.3,163.9z"/>
		</g>
	</g>
	<g id="XMLID_93_" class="st3">
		<g id="XMLID_557_">
			<path id="XMLID_561_" class="st4" d="M287.3,164.5c-0.1,0.7-0.2,1.4-0.2,2.1c0,0.7,0.5,1.2,1.2,1.2c0.6,0,1.3-0.6,1.2-1.2
				c0-0.5,0-0.9,0.1-1.4c0.1-0.7-0.2-1.4-0.9-1.5C288.2,163.5,287.4,163.9,287.3,164.5L287.3,164.5z"/>
		</g>
	</g>
	<g id="XMLID_100_" class="st3">
		<g id="XMLID_549_">
			<path id="XMLID_553_" class="st4" d="M236.6,178.9c0,2.5,0.2,4.5,1.9,6.3c0.8,0.9,2.8,2.6,4.2,2.9c2.5,0.5,6.1-1.3,8.5-1.7
				c4.4-0.8,8.8-1.4,13.2-2c7.6-1,15.3-2,22.5-4.4c5.9-2,3.7-5.5,2.6-10.9c-0.3-1.6-2.7-0.9-2.4,0.7c0.7,3.3,1.8,6.1-1.7,8
				c-1.9,1.1-4.9,1.4-7,1.8c-5.6,1.2-11.2,1.9-16.9,2.6c-4.9,0.7-9.7,1.3-14.5,2.4c-1.5,0.3-2.8,0.9-4.1,0.4
				c-2.5-0.9-3.7-3.8-3.7-6.2C239.1,177.2,236.6,177.2,236.6,178.9L236.6,178.9z"/>
		</g>
	</g>
	<g id="XMLID_107_" class="st3">
		<g id="XMLID_538_">
			<path id="XMLID_546_" class="st4" d="M288.3,170c1.6,0,1.6-2.5,0-2.5C286.7,167.5,286.7,170,288.3,170L288.3,170z"/>
		</g>
	</g>
	<g id="XMLID_114_" class="st3">
		<g id="XMLID_531_">
			<path id="XMLID_536_" class="st4" d="M240.5,169.1c1,5.4,1.9,10.7,2,16.2c0,1.6,2.5,1.6,2.5,0c-0.1-5.7-1.1-11.2-2.1-16.8
				C242.6,166.8,240.2,167.5,240.5,169.1L240.5,169.1z"/>
		</g>
	</g>
	<g id="XMLID_121_" class="st3">
		<g id="XMLID_523_">
			<path id="XMLID_529_" class="st4" d="M198.4,186.1c5.2,2.6,10.3,5.2,15.5,7.8c3.8,1.9,7.8,4.9,12.2,4.8c5-0.1,10.5-1.7,15.5-2.6
				c5.8-1,11.6-2.1,17.4-3.1c23.1-4.2,46.2-8.9,69.2-13.8c1.6-0.3,0.9-2.8-0.7-2.4c-21.1,4.6-42.2,8.8-63.4,12.8
				c-10.3,1.9-20.6,3.8-30.9,5.5c-3.8,0.7-7.2,1.3-11.1,0.2c-2.6-0.8-5.3-2.7-7.8-3.9c-4.9-2.5-9.8-4.9-14.7-7.4
				C198.2,183.2,197,185.4,198.4,186.1L198.4,186.1z"/>
		</g>
	</g>
	<g id="XMLID_128_" class="st3">
		<g id="XMLID_516_">
			<path id="XMLID_521_" class="st4" d="M328.5,178.7c1.6,0,1.6-2.5,0-2.5S326.9,178.7,328.5,178.7L328.5,178.7z"/>
		</g>
	</g>
	<g id="XMLID_135_" class="st3">
		<g id="XMLID_509_">
			<path id="XMLID_514_" class="st4" d="M171.6,49.4c-0.9-4.9-1.2-9.8-1.2-14.8c-0.4,0.4-0.8,0.8-1.2,1.2c28.1,2.5,56.1,5,84.2,7.4
				c13.8,1.2,27.7,2.4,41.5,3.7c7.3,0.6,14.5,1.3,21.8,1.9c3.3,0.3,6.6,0.6,9.9,0.9c1.1,0.1,5.3,0,6.2,0.9c0.6,0.6,0.2,4.5,0.3,5.2
				c0.1,1.6,2.6,1.6,2.5,0c-0.2-3.4,0.8-7.1-3-8.1c-3.7-0.9-8.1-0.7-11.9-1.1c-4-0.4-7.9-0.7-11.9-1.1c-15.6-1.4-31.1-2.8-46.7-4.1
				c-31-2.7-61.9-5.5-92.9-8.2c-0.7-0.1-1.2,0.6-1.2,1.2c-0.1,5.2,0.4,10.3,1.3,15.5C169.5,51.6,171.9,51,171.6,49.4L171.6,49.4z"/>
		</g>
	</g>
	<g id="XMLID_142_" class="st3">
		<g id="XMLID_502_">
			<path id="XMLID_507_" class="st4" d="M332.2,56.9c4.3,17.7,4.9,35.7,7,53.6c1,7.9,3.8,16.3,3.5,24.2c-0.1,3.3,0.2,7-0.1,10.2
				c-0.2,2.3,0.5,2-2.4,2.6c-2.2,0.4-4.8,0-7.1,0.1c-1.6,0-1.6,2.5,0,2.5c3.7,0,9.6,1.3,12.6-1.5c0.3-0.3,0.5-0.8,0.3-1.2
				c-2.7-6.4-0.2-13.8-1.6-20.6c-1.7-8.2-2.9-16.4-3.7-24.8c-1.4-15.4-2.5-30.7-6.2-45.7C334.2,54.7,331.8,55.3,332.2,56.9
				L332.2,56.9z"/>
		</g>
	</g>
	<g id="XMLID_149_" class="st3">
		<g id="XMLID_495_">
			<path id="XMLID_500_" class="st4" d="M182.5,166.1c6.6-0.9,13.1-0.2,19.7-0.4c5.6-0.2,11-1.6,16.5-2.6
				c13.1-2.5,26.5-2.4,39.8-3.6c25.8-2.5,51.5-6.1,77.2-9.5c1.6-0.2,1.6-2.7,0-2.5c-26.3,3.4-52.6,7.3-79,9.7
				c-12.2,1.1-24.6,1.1-36.7,3.2c-6.9,1.2-13.4,2.9-20.4,2.9c-5.9,0-11.8-0.4-17.7,0.5C180.2,163.9,180.9,166.3,182.5,166.1
				L182.5,166.1z"/>
		</g>
	</g>
	<g id="XMLID_156_" class="st3">
		<g id="XMLID_488_">
			<path id="XMLID_493_" class="st4" d="M336.1,150c1.6,0,1.6-2.5,0-2.5S334.5,150,336.1,150L336.1,150z"/>
		</g>
	</g>
	<g id="XMLID_163_" class="st3">
		<g id="XMLID_480_">
			<path id="XMLID_486_" class="st4" d="M182.8,164c0.9-4.7,0.3-9-0.9-13.5c-1.6-6.1-2.8-11.7-3-18c-0.1-1.6-2.6-1.6-2.5,0
				c0.2,4.5,0.5,8.9,1.6,13.3c1.5,5.9,3.5,11.4,2.3,17.6C180.1,165,182.5,165.6,182.8,164L182.8,164z"/>
		</g>
	</g>
	<g id="XMLID_170_" class="st3">
		<g id="XMLID_473_">
			<path id="XMLID_478_" class="st4" d="M178.8,130.6c0-0.7,0-1.4,0-2.1c0-1.6-2.5-1.6-2.5,0c0,0.7,0,1.4,0,2.1
				C176.3,132.2,178.8,132.2,178.8,130.6L178.8,130.6z"/>
		</g>
	</g>
	<g id="XMLID_177_" class="st3">
		<g id="XMLID_466_">
			<path id="XMLID_471_" class="st4" d="M178.8,127.1c0.7-12.7-0.9-25.3-2.2-37.9c-1.3-12.1-2.5-24.2-3.8-36.3
				c-0.2-1.6-2.7-1.6-2.5,0c1.3,12.1,2.5,24.2,3.8,36.3c1.3,12.6,2.9,25.2,2.2,37.9C176.2,128.7,178.7,128.7,178.8,127.1
				L178.8,127.1z"/>
		</g>
	</g>
	<g id="XMLID_184_" class="st3">
		<g id="XMLID_459_">
			<path id="XMLID_464_" class="st4" d="M171.6,53.5c1.6,0,1.6-2.5,0-2.5S170,53.5,171.6,53.5L171.6,53.5z"/>
		</g>
	</g>
	<g id="XMLID_191_" class="st3">
		<g id="XMLID_452_">
			<path id="XMLID_457_" class="st4" d="M173.2,52.4c-0.4-1.4-1-2.7-1.7-3.9c-0.8-1.4-3-0.1-2.2,1.3c0.6,1.1,1.1,2.1,1.4,3.3
				C171.3,54.6,173.7,53.9,173.2,52.4L173.2,52.4z"/>
		</g>
	</g>
	<g id="XMLID_198_" class="st3">
		<g id="XMLID_445_">
			<path id="XMLID_450_" class="st4" d="M321.4,158.1c-1,7.4,6.6,6.9,12.3,8.3c10.5,2.5,20.9,5,31.4,7.5c4.5,1.1,9.1,2.6,13.7,3.2
				c4.2,0.5,8.4-0.7,12.5-1.5c10.5-2.2,21-4.3,31.5-6.5c1.6-0.3,0.9-2.7-0.7-2.4c-8.3,1.7-16.5,3.4-24.8,5.1
				c-3.8,0.8-7.6,1.7-11.4,2.3c-5.3,1-9.3,0-14.4-1.2c-7.9-1.9-15.9-3.8-23.8-5.7c-3.8-0.9-7.6-1.8-11.4-2.7
				c-3.1-0.7-13-1.4-12.4-5.7C324,157.2,321.6,156.5,321.4,158.1L321.4,158.1z"/>
		</g>
	</g>
	<g id="XMLID_205_" class="st3">
		<g id="XMLID_438_">
			<path id="XMLID_443_" class="st4" d="M380.7,57.9c13.5,2.4,27.2,2.1,40.7,4.6c1.6,0.3,2.2-2.1,0.7-2.4
				c-13.5-2.5-27.2-2.2-40.7-4.6C379.8,55.2,379.1,57.6,380.7,57.9L380.7,57.9z"/>
		</g>
	</g>
	<g id="XMLID_212_" class="st3">
		<g id="XMLID_431_">
			<path id="XMLID_436_" class="st4" d="M422.2,62.5c1.6,0,1.6-2.5,0-2.5S420.6,62.5,422.2,62.5L422.2,62.5z"/>
		</g>
	</g>
	<g id="XMLID_219_" class="st3">
		<g id="XMLID_424_">
			<path id="XMLID_429_" class="st4" d="M421.1,61.1c0.5,9.2,0.5,18.3-0.3,27.4c-0.7,8.7,0,16.8,0.7,25.5c0.7,8.8,0.8,17.7,1,26.5
				c0.1,4.3,0.2,8.7-0.2,13c-0.4,4.3-1.6,8.5-1.4,12.8c0.1,1.6,2.6,1.6,2.5,0c-0.2-4.3,1-8.5,1.4-12.8s0.2-8.7,0.2-13
				c-0.1-8.8-0.3-17.7-1-26.5c-0.7-8.7-1.4-16.8-0.7-25.5c0.8-9.1,0.8-18.3,0.3-27.4C423.5,59.5,421,59.5,421.1,61.1L421.1,61.1z"/>
		</g>
	</g>
	<g id="XMLID_226_" class="st3">
		<g id="XMLID_417_">
			<path id="XMLID_422_" class="st4" d="M340.2,60.5c7.4-0.1,14.8-0.2,22.2-0.3c6.4-0.1,12.2-1.4,18.4-2.8c1.6-0.3,0.9-2.8-0.7-2.4
				c-6.6,1.5-12.8,2.6-19.7,2.7c-6.8,0.1-13.5,0.2-20.3,0.2C338.6,58,338.6,60.5,340.2,60.5L340.2,60.5z"/>
		</g>
	</g>
	<g id="XMLID_233_" class="st3">
		<g id="XMLID_410_">
			<path id="XMLID_415_" class="st4" d="M380.8,57.5c1.6,0,1.6-2.5,0-2.5C379.2,55,379.2,57.5,380.8,57.5L380.8,57.5z"/>
		</g>
	</g>
	<g id="XMLID_240_" class="st3">
		<g id="XMLID_403_">
			<path id="XMLID_408_" class="st4" d="M380.4,58.1c-1,19.6-1.1,39-0.5,58.5c0.3,9.7,0.5,19.5,0,29.2c-0.2,4.1-0.8,8.2-0.6,12.3
				c0.2,4.9,2.1,9.5,1.6,14.4c-0.2,1.6,2.3,1.6,2.5,0c0.5-5-1.4-9.5-1.6-14.4c-0.2-4.1,0.4-8.3,0.6-12.3c0.4-9.7,0.3-19.5,0-29.2
				c-0.5-19.6-0.4-39,0.5-58.5C383,56.5,380.5,56.5,380.4,58.1L380.4,58.1z"/>
		</g>
	</g>
	<g id="XMLID_247_" class="st3">
		<g id="XMLID_396_">
			<path id="XMLID_401_" class="st4" d="M382.5,174.6c-0.2-3-0.1-5.9,0.4-8.8c0.3-1.6-2.1-2.2-2.4-0.7c-0.6,3.1-0.8,6.3-0.5,9.4
				C380.1,176.2,382.6,176.2,382.5,174.6L382.5,174.6z"/>
		</g>
	</g>
	<g id="XMLID_254_" class="st3">
		<g id="XMLID_389_">
			<path id="XMLID_394_" class="st4" d="M418.9,168.4c1.8-20.7-0.8-40.9-1.1-61.5c-0.1-5.1,0.2-10.1,0.5-15.1
				c0.2-3.1,0.3-6.3-1.3-9.1c-2-3.5-6.3-4.9-7.7-8.8c-1.5-4.3-1-10.1-1.4-14.6c-0.1-1.6-2.6-1.6-2.5,0c0.5,6.9-0.5,15.1,4.9,20.2
				c1.5,1.5,3.5,2.6,4.6,4.5c1.4,2.4,1.2,5.2,1,7.8c-0.3,5.1-0.6,10-0.5,15.1c0.3,20.7,2.9,40.8,1.1,61.5
				C416.3,170,418.8,170,418.9,168.4L418.9,168.4z"/>
		</g>
	</g>
	<g id="XMLID_12_" class="st3">
		<g id="XMLID_382_">
			<path id="XMLID_387_" class="st4" d="M551.2,119.3c-7.1,4.7-14.2,9.4-21.7,13.4c-7.5,3.9-15.2,7.3-22.7,11.3
				c-7.8,4.2-15.1,9.3-22.5,14.2c-2.1,1.4-5.7,2.9-7,5.3c-1.3,2.4,0.4,4,0.1,6.4c-0.2,1.6,2.3,1.6,2.5,0c0.1-1-0.3-1.7-0.2-2.6
				c0.4-3.8,1.8-4.2,4.3-6c3.1-2.1,6.2-4.2,9.3-6.3c6.6-4.3,13.3-8.4,20.3-11.9c13.4-6.7,26.3-13.5,38.8-21.8
				C553.8,120.6,552.5,118.4,551.2,119.3L551.2,119.3z"/>
		</g>
	</g>
	<g id="XMLID_13_" class="st3">
		<g id="XMLID_375_">
			<path id="XMLID_380_" class="st4" d="M477.5,172.3c16.5,8.5,33,17.1,48.7,26.9c14.8,9.2,29.3,19.1,45.1,26.4
				c3.2,1.5,6.5,2.9,9.9,4.1c2.8,1.1,6.4,3,9.6,2.7c3.4-0.3,7.3-3.6,10.2-5.4c4.6-2.7,9.2-5.4,13.8-8.1
				c17.2-10.1,34.4-20.3,51.7-30.4c1.4-0.8,0.1-3-1.3-2.2c-16.1,9.5-32.2,18.9-48.2,28.4c-4,2.4-8,4.7-12.1,7.1
				c-3.7,2.2-8,5.6-12.1,7.1c-4.6,1.7-9.9-1.1-14.2-2.9c-4.2-1.7-8.3-3.6-12.3-5.7c-14.5-7.4-28-16.7-41.9-25.3
				c-14.8-9.1-30.3-17.1-45.8-25.1C477.3,169.4,476,171.6,477.5,172.3L477.5,172.3z"/>
		</g>
	</g>
	<g id="XMLID_22_" class="st3">
		<g id="XMLID_368_">
			<path id="XMLID_373_" class="st4" d="M666.4,188.6c1.6,0,1.6-2.5,0-2.5C664.8,186.1,664.8,188.6,666.4,188.6L666.4,188.6z"/>
		</g>
	</g>
	<g id="XMLID_44_" class="st3">
		<g id="XMLID_361_">
			<path id="XMLID_366_" class="st4" d="M667.7,188.9c3.1-23.5,7.4-47.1,8.1-70.8c0-1.6-2.5-1.6-2.5,0c-0.7,23.7-5,47.3-8.1,70.8
				C665,190.4,667.5,190.4,667.7,188.9L667.7,188.9z"/>
		</g>
	</g>
	<g id="XMLID_46_" class="st3">
		<g id="XMLID_354_">
			<path id="XMLID_359_" class="st4" d="M676.1,114.4c1.5-7.6,2.3-15.2,2.3-23c0-1.6-2.5-1.6-2.5,0c0,7.5-0.7,14.9-2.2,22.3
				C673.4,115.3,675.8,115.9,676.1,114.4L676.1,114.4z"/>
		</g>
	</g>
	<g id="XMLID_48_" class="st3">
		<g id="XMLID_347_">
			<path id="XMLID_352_" class="st4" d="M675.5,121.2c0.2-2.4,0.2-4.9,0.1-7.3c-0.1-1.6-2.6-1.6-2.5,0c0.1,2.4,0.1,4.9-0.1,7.3
				C672.9,122.8,675.4,122.8,675.5,121.2L675.5,121.2z"/>
		</g>
	</g>
	<g id="XMLID_50_" class="st3">
		<g id="XMLID_340_">
			<path id="XMLID_345_" class="st4" d="M551.7,121.1c2.6-8.8,2.4-17.8,2.7-26.9c0.3-10,2-19.7,3.8-29.5c1.6-9,3-18,3.2-27.2
				c0.1-2.8-0.4-7.5,2.7-9c2.9-1.3,5.4,1.5,7.6,2.7c3.8,2,7.8,3.7,11.5,5.7c15.8,8.5,29.9,19.7,45.6,28.5c7.5,4.2,16,5.9,23.4,10
				c8.4,4.8,16.1,11.1,24,16.6c1.3,0.9,2.6-1.2,1.3-2.2c-6.7-4.7-13.4-9.5-20.1-14.1c-6.2-4.2-13-5.9-19.8-8.8
				c-14.4-6.1-27-16.2-40.2-24.6c-6.5-4.1-13.1-7.9-20-11.2c-3.1-1.5-6.1-3.7-9.2-5c-1.6-0.7-3.2-0.8-4.8,0
				c-4.7,2.2-4.5,7.9-4.5,12.4c-0.2,9.3-1.8,18.4-3.4,27.5c-1.5,8.5-3,17-3.4,25.6c-0.5,9.7,0.2,19.5-2.7,28.9
				C548.9,122,551.3,122.6,551.7,121.1L551.7,121.1z"/>
		</g>
	</g>
	<g id="XMLID_70_" class="st3">
		<g id="XMLID_333_">
			<path id="XMLID_338_" class="st4" d="M662.1,95.9c-6.7-5.5-14.7-8.5-22.4-12.2c-8.7-4.3-16.1-10.6-25-14.5
				c-8.7-3.9-17.1-7.6-25.1-12.9c-7.5-4.9-14.7-10-23.1-13.4c-0.6-0.3-1.4,0.3-1.5,0.9c-1.9,8-2.4,16.3-3.3,24.4
				c-0.9,8.4-1.8,16.8-2.8,25.2c-0.5,4.2-0.9,8.4-1.4,12.6c-0.3,3-1.5,6.8-0.8,9.9c1.2,5.3,9.5,7.1,13.6,9
				c14.8,6.8,29.5,13.6,43.6,21.6c6.9,3.9,13.8,8,20.5,12.3c6.3,4.1,12.4,9.1,19.8,10.7c0.6,0.1,1.4-0.2,1.5-0.9
				c2.2-12.2-0.1-24.5,1.8-36.7c1.8-11.3,5.7-22.2,5.8-33.7c0-1.6-2.5-1.6-2.5,0c-0.1,12-4.4,23.1-6,34.9
				c-1.6,11.6,0.6,23.3-1.5,34.9c0.5-0.3,1-0.6,1.5-0.9c-7.2-1.6-13.1-6.6-19.2-10.5c-6.2-4-12.5-7.8-18.9-11.4
				c-12.6-7.2-25.5-13.5-38.7-19.5c-3-1.4-6-2.7-9-4.1c-3.6-1.6-9-3-10.1-7.4c-0.7-3.1,0.8-7.9,1.2-11.1c0.4-3.9,0.9-7.8,1.3-11.6
				c1.7-15.5,2.1-31.9,5.8-47c-0.5,0.3-1,0.6-1.5,0.9c8.6,3.5,16.1,9,23.8,14c7.6,4.9,15.5,8.3,23.7,12s15,9.3,22.8,13.4
				c8.1,4.3,16.9,7.1,24.1,12.9C661.6,98.7,663.4,96.9,662.1,95.9L662.1,95.9z"/>
		</g>
	</g>
	<g id="XMLID_315_" class="st3">
		<g id="XMLID_326_">
			<path id="XMLID_331_" class="st4" d="M661.3,98.2c1.6,0,1.6-2.5,0-2.5S659.7,98.2,661.3,98.2L661.3,98.2z"/>
		</g>
	</g>
	<g id="XMLID_322_" class="st3">
		<g id="XMLID_319_">
			<path id="XMLID_324_" class="st4" d="M562,29.2c4.5,2.2,9,4.5,13.5,6.7c1.2,0.6,2.7-1,1.5-2c-3.2-2.5-6.4-4.9-10-6.7
				c-1.4-0.7-2.7,1.4-1.3,2.2c10.9,6,21.4,12.5,31.6,19.6c0.4-0.7,0.8-1.4,1.3-2.2c-4-2.6-7.2-5.6-10.1-9.4c-0.7,0.5-1.3,1-2,1.5
				c6.3,5.8,13.2,10.8,20.2,15.8c6.6,4.8,13.1,9.5,20.9,12.1c9.1,3.1,17.3,6.6,25.7,11.2c3.7,2,7.5,4.1,11.1,6.3
				c3.9,2.4,10.1,5.1,10.8,10.2c0.2,1.6,2.6,0.9,2.4-0.7c-1-6.8-9.9-10.5-15.1-13.5c-7.6-4.4-15.6-9.1-23.8-12.4
				c-4.7-1.9-9.8-2.9-14.4-5c-4.3-1.9-8.3-4.6-12.1-7.3c-8.2-5.8-16.5-11.6-23.9-18.4c-1-0.9-2.8,0.3-2,1.5c3.1,4.1,6.6,7.5,11,10.3
				c1.4,0.9,2.6-1.2,1.3-2.2c-10.2-7.1-20.7-13.7-31.6-19.6c-0.4,0.7-0.8,1.4-1.3,2.2c3.5,1.7,6.5,3.9,9.5,6.3c0.5-0.7,1-1.3,1.5-2
				c-4.5-2.2-9-4.5-13.5-6.7C561.8,26.4,560.5,28.5,562,29.2L562,29.2z"/>
		</g>
	</g>
	<g id="XMLID_329_" class="st3">
		<g id="XMLID_312_">
			<path id="XMLID_317_" class="st4" d="M646.8,73.7c-2.7-2.7-6.3-3.6-9.7-5.1c-4.9-2.1-8.9-5.3-13.5-7.8c-3.7-2-7.5-3.4-11-5.9
				s-6.7-5.3-10.3-7.7c-1.4-0.9-2.6,1.3-1.3,2.2c3.6,2.3,6.8,5.2,10.3,7.7c3,2.1,6.1,3.5,9.4,5.1c3.7,1.8,6.9,4.4,10.5,6.4
				c4.4,2.5,10.2,3.3,13.8,6.9C646.2,76.6,648,74.8,646.8,73.7L646.8,73.7z"/>
		</g>
	</g>
	<g id="XMLID_336_" class="st3">
		<g id="XMLID_306_">
			<path id="XMLID_310_" class="st4" d="M601.2,46.9c-0.1,0-0.2-0.1-0.2-0.1c-0.6-0.3-1.4-0.2-1.7,0.4c-0.3,0.6-0.2,1.4,0.4,1.7
				c0.1,0,0.2,0.1,0.2,0.1c0.6,0.3,1.4,0.2,1.7-0.4C602,48.1,601.8,47.2,601.2,46.9L601.2,46.9z"/>
		</g>
	</g>
	<g id="XMLID_343_" class="st3">
		<g id="XMLID_300_">
			<path id="XMLID_304_" class="st4" d="M673.7,93.1c0,16-4.6,31.8-4.9,47.8c0,1.5,2,1.6,2.5,0.3c2.1-5.9,0.3-12.3,2.7-18
				c-0.8-0.1-1.6-0.2-2.5-0.3c0.3,6,0.2,11.9-0.4,17.8c-0.2,1.6,2.4,1.6,2.5,0c0.6-5.9,0.7-11.8,0.4-17.8c-0.1-1.5-1.9-1.6-2.5-0.3
				c-2.4,5.8-0.6,12.2-2.7,18c0.8,0.1,1.6,0.2,2.5,0.3c0.3-16,4.9-31.8,4.9-47.8C676.2,91.5,673.7,91.5,673.7,93.1L673.7,93.1z"/>
		</g>
	</g>
	<g id="XMLID_350_" class="st3">
		<g id="XMLID_294_">
			<path id="XMLID_298_" class="st4" d="M668.9,137.9c-0.5,4.6-1,9.2-1,13.9c0,1.4,2.2,1.8,2.5,0.3c0.6-3.4,1-6.8,1.2-10.3
				c-0.8,0-1.7,0-2.5,0c0.7,15.8-2.8,31.7-6.6,47c-0.4,1.6,1.9,2.2,2.4,0.7c2-6.3,2.4-13.2,3.3-19.7c1-6.9,2-13.7,3-20.6
				c0.2-1.6-2.2-2.3-2.4-0.7c-1,6.9-2,13.7-3,20.6c-0.9,6.5-1.4,13.4-3.3,19.7c0.8,0.2,1.6,0.4,2.4,0.7c3.9-15.5,7.5-31.6,6.7-47.7
				c-0.1-1.6-2.4-1.6-2.5,0c-0.2,3.2-0.5,6.4-1.1,9.6c0.8,0.1,1.6,0.2,2.5,0.3c0-4.7,0.5-9.2,1-13.9
				C671.6,136.3,669.1,136.3,668.9,137.9L668.9,137.9z"/>
		</g>
	</g>
	<g id="XMLID_357_" class="st3">
		<g id="XMLID_288_">
			<path id="XMLID_292_" class="st4" d="M550.4,121.2c9.6,5.4,19.1,11,28.3,16.9c9.1,5.8,17.9,12.1,27.5,17
				c9.3,4.8,18.8,9.2,27.8,14.6c9.6,5.8,19.1,11.8,28.7,17.7c1.4,0.8,2.6-1.3,1.3-2.2c-9.3-5.7-18.6-11.6-27.9-17.2
				c-9.3-5.6-19-10.1-28.6-15.1c-9.4-4.8-17.9-10.9-26.7-16.5c-9.5-6.1-19.2-11.9-29.1-17.4C550.2,118.3,549,120.4,550.4,121.2
				L550.4,121.2z"/>
		</g>
	</g>
	<g id="XMLID_364_" class="st3">
		<g id="XMLID_282_">
			<path id="XMLID_286_" class="st4" d="M479.9,164.3c4.4,1,7.7,3.7,11.3,6.2c3.7,2.5,7.4,4.8,11.3,7c7.8,4.5,15.8,8.7,23.7,13
				c15.8,8.6,31.7,17.2,47.5,25.7c4.9,2.7,11.7,8.2,17.7,6.9c3.1-0.7,5.2-3.4,7.7-5c3.6-2.4,7.6-4.2,11.5-6.3
				c16.2-8.6,32.3-17.2,48.5-25.8c1.4-0.8,0.2-2.9-1.3-2.2c-15.6,8.3-31.2,16.6-46.7,24.9c-3.4,1.8-6.8,3.6-10.2,5.4
				c-2.9,1.6-8,6.5-11.2,6.6c-3.9,0.1-8.1-3.2-11.4-5c-3.9-2.1-7.7-4.2-11.6-6.3c-14.8-8-29.6-16-44.4-24.1
				c-7.3-4-14.7-7.8-21.8-12.1c-6.4-3.8-12.5-9.8-19.9-11.5C479,161.5,478.3,164,479.9,164.3L479.9,164.3z"/>
		</g>
	</g>
	<g id="XMLID_371_" class="st3">
		<g id="XMLID_276_">
			<path id="XMLID_280_" class="st4" d="M560.6,196.7c-6.5-3.8-13-7.6-19.4-11.5c-3-1.8-6-3.6-8.8-5.7c-3.8-2.8-2.1-2.1,0.6-3.5
				c1.7-0.9,3.4-1.8,5.2-2.7c8.3-4.1,13.4,3.9,20,7.7c6.1,3.5,12.9,5.3,18.2,10.1c0.2-0.7,0.4-1.4,0.6-2.1
				c-6.4,2.1-12.7,4.4-18.3,8.3c-1.3,0.9-0.1,3.1,1.3,2.2c5.4-3.8,11.5-6,17.7-8.1c0.8-0.3,1.3-1.4,0.6-2.1c-6.8-6.1-16-8-23.2-13.5
				c-3.2-2.5-6.4-5.5-10.4-6.5c-3.4-0.8-6.3,1.1-9.2,2.6c-2,1-7,2.6-7.9,4.8c-0.9,2.4,2,3.7,3.6,4.9c8.9,6.5,18.8,11.6,28.3,17.2
				C560.8,199.7,562,197.5,560.6,196.7L560.6,196.7z"/>
		</g>
	</g>
	<g id="XMLID_378_" class="st3">
		<g id="XMLID_270_">
			<path id="XMLID_274_" class="st4" d="M616.5,196.7c-7.5-4.6-15-9.2-22.6-13.8s-16-7.9-23.5-12.5c-7.2-4.4-13.9-9.3-21.3-13.2
				c-7.7-4-15.5-7.7-22.8-12.4c-0.1,0.8-0.2,1.5-0.3,2.3c4.2-1.7,8.3-3.6,12.2-5.7c4.7-2.5,11.1-8.5,16.6-6.9
				c9.9,2.8,18.1,11.4,26.3,17.1c8.8,6.2,18.7,10.8,28.1,15.9c10.4,5.6,20.7,11.2,31.1,16.8c-0.1-0.6-0.3-1.1-0.4-1.7
				c-2.5,3.8-9.3,5.3-13.3,7.2c-4.3,2-8.5,4.2-12.7,6.4c-1.2,0.7-0.4,2.8,1,2.3c2.2-0.8,4-1.9,5.9-3.4c1.3-1-0.5-2.8-1.8-1.8
				c-1.4,1.2-3,2.1-4.8,2.7c0.3,0.8,0.6,1.5,1,2.3c5.2-2.8,10.5-5.5,15.9-7.9c4-1.8,8.5-2.8,11-6.6c0.4-0.6,0.1-1.4-0.4-1.7
				c-10.9-5.9-21.9-11.8-32.8-17.7c-10.9-5.9-21.9-11.4-31.8-19c-3.8-3-7.7-5.9-11.9-8.4c-3.5-2.1-8-5.4-12.2-5.6
				c-4-0.2-7.4,2.8-10.6,4.7c-5.4,3.3-11.1,6.1-17,8.5c-1,0.4-1.3,1.7-0.3,2.3c7.1,4.5,14.6,8.1,22,12c7.8,4,14.7,9.1,22.1,13.6
				c7.3,4.5,15.4,7.6,22.8,12c7.8,4.7,15.6,9.5,23.3,14.3C616.6,199.7,617.9,197.5,616.5,196.7L616.5,196.7z"/>
		</g>
	</g>
	<g id="XMLID_385_" class="st3">
		<g id="XMLID_264_">
			<path id="XMLID_268_" class="st4" d="M160.3,28.5c1.6,0,1.6-2.5,0-2.5S158.7,28.5,160.3,28.5L160.3,28.5z"/>
		</g>
	</g>
	<g id="XMLID_392_" class="st3">
		<g id="XMLID_257_">
			<path id="XMLID_262_" class="st4" d="M159.3,27.4c-0.7,3.4-0.4,6.3,0.4,9.6c1.1,4.8,2,9.3,2.3,14.3c0.1,1.3,2.2,1.8,2.5,0.3
				c0.9-5.2,0.1-9.9-2.3-14.6c-0.6-1.1-2.4-0.6-2.3,0.6c1.6,23.8,2.6,47.7,4.9,71.4c0.5,4.9,2.4,9.5,2.9,14.5
				c0.6,5.7,0.6,11.5,1.2,17.2c1.2,11,2.5,22.7,5.7,33.3c0.5,1.5,2.9,0.9,2.4-0.7c-3.4-11-4.7-23.2-5.9-34.6
				c-0.5-5.4-0.5-10.8-1.1-16.1c-0.6-5.2-2.6-10-3-15.3c-1.8-23.2-3.2-46.5-4.7-69.8c-0.8,0.2-1.6,0.4-2.3,0.6c2.1,4,2.8,8.1,2,12.6
				c0.8,0.1,1.6,0.2,2.5,0.3c-0.2-3.2-0.4-6.4-1-9.5c-0.9-4.6-2.7-8.8-1.8-13.6C162,26.5,159.6,25.9,159.3,27.4L159.3,27.4z"/>
		</g>
	</g>
	<g id="XMLID_399_" class="st3">
		<g id="XMLID_250_">
			<path id="XMLID_255_" class="st4" d="M170,114.6c-1.5-6.3-3.5-12.6-3.2-19.1c0.1-1.6-2.4-1.6-2.5,0c-0.3,6.8,1.7,13.3,3.3,19.8
				C167.9,116.8,170.3,116.2,170,114.6L170,114.6z"/>
		</g>
	</g>
	<g id="XMLID_406_" class="st3">
		<g id="XMLID_243_">
			<path id="XMLID_248_" class="st4" d="M177.6,174c0.2-3.1-0.8-5.9-1.5-8.9c-1-4.1-1.5-8.2-1.6-12.4c-0.1-1.6-2.6-1.6-2.5,0
				c0.1,3.3,0.4,6.6,1,9.9c0.7,3.8,2.3,7.5,2.1,11.4C175,175.6,177.5,175.6,177.6,174L177.6,174z"/>
		</g>
	</g>
	<g id="XMLID_413_" class="st3">
		<g id="XMLID_236_">
			<path id="XMLID_241_" class="st4" d="M172.6,151.5c1.6,0,1.6-2.5,0-2.5S171,151.5,172.6,151.5L172.6,151.5z"/>
		</g>
	</g>
	<g id="XMLID_420_" class="st3">
		<g id="XMLID_229_">
			<path id="XMLID_234_" class="st4" d="M172.8,143.7c0-0.2,0-0.3,0-0.5c0-1.6-2.5-1.6-2.5,0c0,0.2,0,0.3,0,0.5
				C170.3,145.3,172.8,145.3,172.8,143.7L172.8,143.7z"/>
		</g>
	</g>
	<g id="XMLID_427_" class="st3">
		<g id="XMLID_222_">
			<path id="XMLID_227_" class="st4" d="M172.1,140.9c-0.1-0.3-0.2-0.5-0.2-0.8c-0.2-0.6-0.9-1.1-1.5-0.9c-0.6,0.2-1.1,0.9-0.9,1.5
				c0.1,0.3,0.2,0.5,0.2,0.8c0.2,0.6,0.9,1.1,1.5,0.9C171.8,142.3,172.3,141.5,172.1,140.9L172.1,140.9z"/>
		</g>
	</g>
	<g id="XMLID_434_" class="st3">
		<g id="XMLID_215_">
			<path id="XMLID_220_" class="st4" d="M171.1,137c-0.7-6.4-1.4-12.8-2.1-19.3c-0.2-1.6-2.7-1.6-2.5,0c0.7,6.4,1.4,12.8,2.1,19.3
				C168.8,138.6,171.3,138.6,171.1,137L171.1,137z"/>
		</g>
	</g>
	<g id="XMLID_441_" class="st3">
		<g id="XMLID_208_">
			<path id="XMLID_213_" class="st4" d="M-34.4,356.8c-11.1-1.9,3.3-18.7,6-22.5c4.8-6.7,9.6-13.3,14.3-20c4.8-6.7,9.6-13.3,14.3-20
				c2.5-3.5,5-7,7.5-10.4c3.6-4.9,6-7.4,12.4-7.8c32.8-2,66,2.2,98.7,5.2c8.3,0.8,16.6,1.5,24.8,2.3c2,0.2,4,0.4,6,0.5
				c1.4,0.1,4.8-0.2,6,0.5c5.1,3.2-0.4,9.8-2.3,13.6c-7.7,15-15.4,30-23.1,44.9c-7.6,14.8-15.2,29.6-22.8,44.4
				c-1.7,3.4-3.3,6.9-5.2,10.1c-3.3,5.5-8.8,4.1-14,2.7c-7.7-2-15.3-4.1-22.9-6.3c-17.3-5-34.5-10.7-51.4-17
				c-16.3-6-34.4-11.5-48.5-21.9c-1.3-1-2.5,1.2-1.3,2.2c14,10.3,32.1,15.8,48.3,21.8c17.8,6.6,35.9,12.6,54.1,17.8
				c8.9,2.6,18.1,5.8,27.2,7.3c6.8,1.1,9.4-2.9,12.3-8.4c9.2-17.8,18.3-35.5,27.4-53.3c4.5-8.8,9.1-17.6,13.6-26.4
				c4.4-8.5,9.6-16.9,13.2-25.8c1.5-3.7,1.1-7.2-3.2-8.1c-4.2-1-8.9-0.9-13.2-1.2c-5-0.5-9.9-0.9-14.9-1.4
				c-19.8-1.8-39.5-3.8-59.3-5.2c-9.8-0.7-19.7-1.1-29.6-1.3c-4.6-0.1-9.2,0-13.8,0.1c-4,0.1-8.9-0.3-12.7,1.3
				c-2.9,1.3-4.8,3.9-6.7,6.4c-3.1,4.2-6.1,8.5-9.2,12.8c-6.5,9.1-13,18.2-19.5,27.2c-3.3,4.5-6.5,9.1-9.8,13.6
				c-2.9,4-6.6,8.1-8.5,12.7c-1.9,4.7-0.6,10.9,5.1,11.9C-33.5,359.5-32.8,357.1-34.4,356.8L-34.4,356.8z"/>
		</g>
	</g>
	<g id="XMLID_455_" class="st3">
		<g id="XMLID_201_">
			<path id="XMLID_206_" class="st4" d="M12.9,277.9c17.9-0.2,36.2-1.6,54,0.4c8.3,0.9,16.4,1.7,24.7,1.7c9.1-0.1,17.8,0.5,26.8,2.1
				c4.2,0.7,8.4,1.5,12.6,2.2c2.3,0.4,4.5,0.8,6.8,1.2c1,0.2,6.3,0.4,6.8,1.2c0.9,1.4-1.9,7.8-2.4,9.5c-1.1,4-2.1,8.1-3.5,12
				c-2.9,8-8.4,13.9-12.8,20.9c-4.1,6.6-7.1,13.8-10.5,20.7c-3.7,7.6-9.4,14.2-12.8,21.9c-3.2,7.2-4.2,15.5-10.4,21
				c-1.2,1.1,0.6,2.8,1.8,1.8c4.9-4.4,6.8-10.4,8.9-16.4c2.9-8.3,8.3-14.7,12.4-22.4c4-7.6,7.1-15.7,11.5-23.2
				c4.1-7.1,10-13,13.2-20.7c1.5-3.6,2.6-7.3,3.6-11c1.1-4.1,3-8.6,3.7-12.8c0.2-1.3,0.4-2.3-0.6-3.3c-1.1-1-4-1-5.3-1.2
				c-2.6-0.5-5.2-0.9-7.8-1.4c-9-1.6-18.1-3.5-27.3-4.4c-9.2-0.8-18.4,0.1-27.6-0.7c-10.8-0.9-21.3-2.3-32.1-2.2
				c-11.3,0.1-22.5,0.3-33.8,0.5C11.3,275.4,11.2,277.9,12.9,277.9L12.9,277.9z"/>
		</g>
	</g>
	<g id="XMLID_462_" class="st3">
		<g id="XMLID_194_">
			<path id="XMLID_199_" class="st4" d="M92.9,392c-5.8,1.8-12.7-1.9-18.5-2.8c-5.6-0.8-11.1-1.9-16.5-3.4
				c-10.9-2.9-21.4-7.1-32.1-10.8c-10.5-3.6-21.1-6-31.7-8.8c-11.6-3-22.5-7.9-32.6-14.2c-1.4-0.8-2.6,1.3-1.3,2.2
				c9.8,6.1,20.4,10.8,31.5,13.9c11.8,3.3,23.5,5.8,35.1,9.8c11.2,3.9,22.3,8.2,33.8,11.1c6,1.5,12.3,2,18.3,3.4
				c5,1.2,9.5,3.5,14.7,1.9C95.1,393.9,94.4,391.5,92.9,392L92.9,392z"/>
		</g>
	</g>
	<g id="XMLID_469_" class="st3">
		<g id="XMLID_187_">
			<path id="XMLID_192_" class="st4" d="M-39.7,354.2c1.6,0,1.6-2.5,0-2.5S-41.3,354.2-39.7,354.2L-39.7,354.2z"/>
		</g>
	</g>
	<g id="XMLID_476_" class="st3">
		<g id="XMLID_180_">
			<path id="XMLID_185_" class="st4" d="M-34.4,356.7c-6.2-7.7,3.8-17.6,8.2-23.5c4.6-6.2,9.1-12.3,13.7-18.5s9.1-12.3,13.7-18.5
				c4.7-6.3,9-13.7,15.4-18.6c1.3-1,0-3.1-1.3-2.2c-6.2,4.8-10.4,11.7-15.1,17.9c-6.2,8.3-12.3,16.6-18.5,24.9
				c-5.8,7.8-12.2,15.4-17.4,23.6c-3.4,5.3-4.8,11.4-0.6,16.6C-35.2,359.7-33.4,358-34.4,356.7L-34.4,356.7z"/>
		</g>
	</g>
	<g id="XMLID_483_" class="st3">
		<g id="XMLID_173_">
			<path id="XMLID_178_" class="st4" d="M119.8,342.1c-0.1-2.2-1.8-4-1.3-6.3c0.6-2.9,3.7-3,6.1-2.7c0-0.8,0-1.6,0-2.4
				c-1.1,0.3-2.2,0-3.3,0.5c-1.1,0.5-1.9,1.3-2.6,2.3c-1.8,2.4-2.4,5.3-2.1,8.2c0.2,1.6,2.7,1.6,2.5,0c-0.3-2.2,0.1-4.5,1.3-6.4
				c0.5-0.8,1.4-1.7,2.3-2c0.8-0.2,1.7,0,2.5-0.2c1.1-0.3,1.3-2.2,0-2.4c-2.9-0.4-6.1-0.4-8.1,2.1c-0.9,1.1-1.3,2.5-1.3,3.9
				c0,0.9,0.2,1.7,0.4,2.6c0.3,0.9,1,1.9,1,2.8C117.3,343.7,119.8,343.7,119.8,342.1L119.8,342.1z"/>
		</g>
	</g>
	<g id="XMLID_484_" class="st3">
		<g id="XMLID_166_">
			<path id="XMLID_171_" class="st4" d="M89.1,376.8c8.2-13.8,16.4-27.7,24.6-41.5c7.3-12.3,14.9-24.5,19.4-38.1
				c0.3-0.8-0.4-1.6-1.2-1.6c-21.6-0.9-43.1-2.3-64.6-4.4c-11.1-1.1-22.1-2.3-33.2-3.6c-4.1-0.5-9.5-2.2-13.5-1.6
				c-3.1,0.5-4.4,3.3-6.1,5.7c-6.5,9-13,17.9-19.5,26.9c-3.1,4.2-6.1,8.4-9.2,12.7c-1.5,2.1-3.1,4.2-4.6,6.3
				c-1.3,1.7-3.4,3.8-4.1,5.9c-1.7,5.2,9.4,8.3,12.8,9.6c9.4,3.6,19.3,5.7,29.1,8.1c23.4,5.9,46.9,11.4,70.4,17
				c1.6,0.4,2.2-2,0.7-2.4c-18.4-4.4-36.9-8.7-55.3-13.3c-9.4-2.3-18.9-4.7-28.3-7.1c-7.9-2-18.5-3.9-25-9.2
				c-2.7-2.2-1.1-3.3,0.7-5.8c1.3-1.8,2.7-3.7,4-5.5c2.9-4,5.7-7.9,8.6-11.9c5.7-7.9,11.5-15.8,17.2-23.7
				c2.5-3.5,5.9-10.6,10.4-10.7c4.7-0.1,9.9,1.3,14.6,1.9c9.7,1.2,19.5,2.2,29.3,3.2c21.8,2.1,43.7,3.6,65.6,4.5
				c-0.4-0.5-0.8-1.1-1.2-1.6c-4.6,14-12.7,26.6-20.2,39.2c-7.9,13.3-15.7,26.5-23.6,39.8C86.1,376.9,88.2,378.2,89.1,376.8
				L89.1,376.8z"/>
		</g>
	</g>
	<g id="XMLID_491_" class="st3">
		<g id="XMLID_159_">
			<path id="XMLID_164_" class="st4" d="M139,285.2c1.9-0.2,19.9-1.2,17.9,3.3c-0.7,1.5,1.5,2.7,2.2,1.3c4.3-9.3-16.2-7.4-20.1-7
				C137.5,282.8,137.4,285.4,139,285.2L139,285.2z"/>
		</g>
	</g>
	<g id="XMLID_498_" class="st3">
		<g id="XMLID_152_">
			<path id="XMLID_157_" class="st4" d="M-36,359.1c5.7,4.4,12.4,5.7,19.2,7.8c7.7,2.4,14.1,7.5,21.6,10.3
				c17.5,6.5,35.7,11.5,53.7,16.6c9.2,2.6,18.5,5.3,27.8,7.6c6.9,1.7,12.8,1.8,17.9-3.7c5.5-6,8.5-14.5,12-21.6
				c4.3-8.8,8.6-17.7,12.9-26.5c9.6-19.7,19.2-39.4,28.8-59.2c0.7-1.4-1.5-2.7-2.2-1.3c-15.5,31.8-30.9,63.6-46.5,95.4
				c-1.5,3.1-3,6.3-5.1,9.1c-4,5.7-8.8,7.2-15.5,5.8c-8.4-1.8-16.7-4.4-24.9-6.7c-16.6-4.7-33.2-9.7-49.7-15c-4.7-1.5-9.6-3-14-5.2
				c-3.7-1.8-7-4.3-10.8-6c-7.7-3.5-16.7-3.8-23.5-9.1C-35.5,356.4-37.3,358.1-36,359.1L-36,359.1z"/>
		</g>
	</g>
	<g id="XMLID_505_" class="st3">
		<g id="XMLID_145_">
			<path id="XMLID_150_" class="st4" d="M478.6,165.1c0,2.4,0,4.8,0,7.1c0,0.6,0.4,1,0.9,1.2c8.9,3.5,16.6,9.1,24.4,14.5
				c7.4,5,15.1,8.9,23.1,12.8c16.3,7.9,31.3,18.3,47.7,26.1c6.6,3.1,12.2,5.4,19.2,2.5c8.7-3.5,16.9-8.7,25.2-13.1
				c16-8.4,33.7-15.8,47.5-27.7c1.2-1.1-0.6-2.8-1.8-1.8c-13.6,11.7-31.2,19-47,27.3c-4.6,2.5-9.3,4.9-13.9,7.4
				c-4,2.1-8.1,4.8-12.4,6.2c-9,2.9-20-5-27.6-9.2c-7.7-4.3-15.1-8.8-22.8-13.1s-15.7-7.8-23.5-11.9c-7.4-3.8-14-8.8-20.9-13.4
				c-3.3-2.2-6.6-4.3-10.1-6.1c-1.3-0.7-3.9-1.3-4.9-2.3c-1.4-1.4-0.6-4.8-0.6-6.6C481.1,163.5,478.6,163.5,478.6,165.1L478.6,165.1
				z"/>
		</g>
	</g>
	<g id="XMLID_519_" class="st3">
		<g id="XMLID_138_">
			<path id="XMLID_143_" class="st4" d="M355,292.4c14.1,1.4,28.2,4.7,42,7.7c2.9,0.6,8.4,0.8,10.8,2.5c4.1,2.8,0,8.9-2.2,11.7
				c-4,5.1-9.5,9-14,13.6s-8.4,9.6-12.4,14.6c-4.5,5.5-10,9.5-15.1,14.5c-10.6,10.3-20.5,21.4-30.6,32.1c-1.1,1.2,0.7,2.9,1.8,1.8
				c11.7-12.3,22.8-25.9,35.8-36.8c6.2-5.2,10.8-11.3,16-17.5c4.9-5.8,10.5-10.9,16.1-16.1c4-3.8,8.2-8.3,8.9-14
				c0.9-6.9-5.3-6.9-10.8-8.1c-15.2-3.4-30.8-7-46.3-8.6C353.4,289.8,353.4,292.3,355,292.4L355,292.4z"/>
		</g>
	</g>
	<g id="XMLID_526_" class="st3">
		<g id="XMLID_131_">
			<path id="XMLID_136_" class="st4" d="M334.1,388.3c-4.3,3.5-11.4,3-16.6,2.5c-6.3-0.6-11.7-3.6-17.4-6.1c-4-1.8-8.1-3.4-12.3-5
				c-5.5-2-12.7-3.4-15.1-9.5c-0.6-1.5-3-0.8-2.4,0.7c1.8,4.4,5.3,6.9,9.6,8.6c7.4,3,15,5.5,22.3,8.9c6.1,2.8,11.2,4.9,18,5.1
				c5.5,0.1,11.2,0.3,15.6-3.4C337.1,389.1,335.3,387.3,334.1,388.3L334.1,388.3z"/>
		</g>
	</g>
	<g id="XMLID_533_" class="st3">
		<g id="XMLID_124_">
			<path id="XMLID_129_" class="st4" d="M271.7,368.4c-0.6-1.4-0.9-2.9-0.9-4.4c0-1.6-2.5-1.6-2.5,0c0,1.7,0.3,3.4,1,5.1
				C269.9,370.5,272.3,369.9,271.7,368.4L271.7,368.4z"/>
		</g>
	</g>
	<g id="XMLID_540_" class="st3">
		<g id="XMLID_117_">
			<path id="XMLID_122_" class="st4" d="M270.7,363.2c-0.5-9.2,9.6-12.7,15.5-17.6c6.1-5,11.4-10.9,18-15.2c6-3.9,11-8.1,16.2-13.1
				c5.9-5.7,13.2-10,20-14.6c1.3-0.9,0.1-3.1-1.3-2.2c-7,4.8-14.4,9.1-20.5,15c-3.6,3.5-7,6.9-11.2,9.8c-3,2.1-6.2,3.9-9.1,6.1
				c-7.1,5.4-12.9,11.9-20.3,17c-5.3,3.6-10.2,7.9-9.8,14.8C268.3,364.8,270.8,364.8,270.7,363.2L270.7,363.2z"/>
		</g>
	</g>
	<g id="XMLID_547_" class="st3">
		<g id="XMLID_110_">
			<path id="XMLID_115_" class="st4" d="M340.2,302.9c2.1-1.8,4.3-3.6,6.4-5.4c2.4-2,5.2-5.5,8.7-4.5c1.6,0.4,2.2-2,0.7-2.4
				c-3-0.8-5.3,0.4-7.6,2.2c-3.4,2.7-6.6,5.6-9.9,8.3C337.2,302.2,339,303.9,340.2,302.9L340.2,302.9z"/>
		</g>
	</g>
	<g id="XMLID_554_" class="st3">
		<g id="XMLID_103_">
			<path id="XMLID_108_" class="st4" d="M360.7,293.5c10.2,2,20.4,4.1,30.6,6.1c2.6,0.5,5.2,1,7.8,1.6c3.2,0.6,6.9,0.4,4.6,4.8
				c-1,2-3.7,4.1-5.2,5.8c-2,2.2-3.9,4.3-5.9,6.5c-7,7.8-13.9,15.8-21.3,23.3c-6.8,7-14.8,12.8-21.7,19.7c-3.3,3.3-6.5,6.8-9.7,10.2
				c-1.5,1.6-2.9,3.3-4.6,4.8c-2.7,2.4-5.2,2.9-8.5,3.6c-2,0.4-3.9,1.4-5.9,1.7c-3.2,0.6-5.8-0.3-8.7-1.2
				c-5.3-1.7-10.6-3.5-15.8-5.6c-5.1-2-10.1-4.3-15-6.7c-1.8-0.9-4-1.7-5.6-2.9c-5.2-4.1-1.3-9.4,1.6-12.5
				c7.1-7.6,16.9-13.2,25.2-19.5c8.7-6.6,17.3-13.4,25.8-20.3c9.2-7.4,18.1-15.9,29.5-19.8c1.5-0.5,0.9-2.9-0.7-2.4
				c-10.7,3.6-19,11-27.6,18c-10.3,8.4-20.7,16.6-31.3,24.6c-5,3.8-10.1,7.5-15.1,11.2c-3.9,2.9-8,6-10.6,10.3
				c-1.6,2.5-3.1,5.9-1.9,8.8c1.8,4.4,8.9,6.4,12.8,8.3c5.1,2.4,10.4,4.7,15.7,6.7c5.6,2.1,11.8,4.8,17.7,5.7
				c4.3,0.6,8.8-1.4,12.9-2.3c5.3-1.2,8.1-4.8,11.7-8.6c8.2-8.6,16.6-16.4,25.5-24.2c9.9-8.7,18.4-19.2,27.2-28.9
				c4.3-4.7,9.7-9.4,13.2-14.6c2-2.9,0-4.6-2.9-5.6c-6.7-2.1-14.2-2.8-21-4.2c-7.4-1.5-14.8-3-22.2-4.4
				C359.8,290.8,359.1,293.2,360.7,293.5L360.7,293.5z"/>
		</g>
	</g>
	<g id="XMLID_555_" class="st3">
		<g id="XMLID_96_">
			<path id="XMLID_101_" class="st4" d="M399.7,309.6c-8.2-3.6-17.3-4.6-26-6.2c-9.9-1.8-19.8-3.7-29.8-5.5
				c-1.6-0.3-2.2,2.1-0.7,2.4c9.3,1.7,18.7,3.5,28,5.2c9,1.7,18.7,2.6,27.2,6.3C399.9,312.4,401.2,310.2,399.7,309.6L399.7,309.6z"
				/>
		</g>
	</g>
	<g id="XMLID_562_" class="st3">
		<g id="XMLID_89_">
			<path id="XMLID_94_" class="st4" d="M339.7,370.6c-10.4-2.8-20.9-6.3-31.1-10c-4.4-1.6-8.5-4-13-5.4c-5.5-1.7-10.4-3.5-15.5-6.4
				c-1.4-0.8-2.7,1.4-1.3,2.2c4.1,2.4,8.2,4.5,12.8,5.8c5.1,1.4,9.6,3.7,14.5,5.6c10.6,4.2,21.8,7.7,32.8,10.7
				C340.6,373.4,341.2,371,339.7,370.6L339.7,370.6z"/>
		</g>
	</g>
	<g id="XMLID_569_" class="st3">
		<g id="XMLID_82_">
			<path id="XMLID_87_" class="st4" d="M298.3,361.5c-2.5,0.7-7.4,3.7-6,7c0.8,1.9,3.8,2.5,5.4,3.2c2.1,0.8,4.9,2.1,7.2,2
				c2.5-0.1,6.7-4.2,6.1-6.9c-0.3-1.6-1.9-1.9-3.3-2.4c-3.2-1.2-6.5-2.3-9.8-3.4c-1.5-0.5-2.2,1.9-0.7,2.4c2.4,0.8,4.9,1.7,7.3,2.5
				c1.2,0.4,3.5,0.9,2.9,2.8c-0.2,0.8-1.9,1.9-2.7,2.1c-1.9,0.5-5.3-1.2-7.1-1.9c-1.8-0.7-3.4-0.9-2.4-2.9c0.6-1.3,2.3-1.9,3.6-2.2
				C300.6,363.5,299.9,361.1,298.3,361.5L298.3,361.5z"/>
		</g>
	</g>
</g>
<g id="Layer_7" class="st0">
	<g id="XMLID_49_" class="st3">
		<ellipse id="XMLID_74_" class="st5" cx="88.5" cy="99.2" rx="19.6" ry="17.1"/>
		<path id="XMLID_51_" class="st5" d="M155.4,0H16C7.2,0,0,7.2,0,16v139.4c0,8.8,7.2,16,16,16h139.4c8.8,0,16-7.2,16-16V16
			C171.4,7.2,164.2,0,155.4,0z M88.5,129c-22.1,0-40-13.4-40-29.8c0-0.3,0-0.5,0-0.8l0,0V38.8H69v34.4c5.8-2.4,12.5-3.8,19.6-3.8
			c22.1,0,40,13.4,40,29.8S110.6,129,88.5,129z"/>
	</g>
	<rect id="XMLID_612_" x="183.4" y="35.2" class="st6" width="390" height="108.7"/>
	<text id="XMLID_75_" transform="matrix(1 0 0 1 183.4232 111.1297)" class="st7 st8 st9">BLOCKSI</text>
</g>
<g id="Layer_7_copy">
	<g id="XMLID_630_">
		<ellipse id="XMLID_639_" class="st5" cx="88.5" cy="99.2" rx="19.6" ry="17.1"/>
		<path id="XMLID_636_" class="st5" d="M155.4,0H16C7.2,0,0,7.2,0,16v139.4c0,8.8,7.2,16,16,16h139.4c8.8,0,16-7.2,16-16V16
			C171.4,7.2,164.2,0,155.4,0z M88.5,129c-22.1,0-40-13.4-40-29.8c0-0.3,0-0.5,0-0.8l0,0V38.8H69v34.4c5.8-2.4,12.5-3.8,19.6-3.8
			c22.1,0,40,13.4,40,29.8S110.6,129,88.5,129z"/>
	</g>
	<g id="XMLID_640_">
		<path id="XMLID_641_" class="st5" d="M265.4,102.7c0,14.8-12,18.9-28.3,18.9h-20.9V56.8h18.3c17.4,0,28.1,4.4,28.1,16.6
			c0,8.2-5.9,12.5-11.9,13.9C258,88.7,265.4,92.2,265.4,102.7z M231.6,67.6v15.1h5.7c6.4,0,9.7-2.4,9.7-7.9s-3.6-7.2-10.9-7.2H231.6
			z M249.5,101.9c0-6.5-4.6-9-11.2-9h-6.7v17.6h5.6C244.4,110.5,249.5,109,249.5,101.9z"/>
		<path id="XMLID_645_" class="st5" d="M289.3,109.4h25.3l-1.6,12.2h-39V56.8h15.3L289.3,109.4L289.3,109.4z"/>
		<path id="XMLID_647_" class="st5" d="M376.5,89.1c0,21.2-10.9,34.1-29.3,34.1c-18.2,0-29.2-12.4-29.2-34.1c0-21.1,10.9-34,29.2-34
			C365.6,55.2,376.5,67.5,376.5,89.1z M334.1,89.1c0,16.5,4.7,22.8,13.1,22.8c8.8,0,13.2-6.4,13.2-22.8s-4.5-22.7-13.2-22.7
			C338.6,66.4,334.1,72.8,334.1,89.1z"/>
		<path id="XMLID_650_" class="st5" d="M431.9,62.3l-7.5,8.9c-3.5-3-7.1-4.7-11.6-4.7c-8.2,0-14,6.6-14,22.5
			c0,15.6,5.7,22.3,14.3,22.3c5.1,0,8.9-2.5,12.6-5.4l6.9,9c-4.2,4.3-11.3,8.3-20.3,8.3c-17.8,0-29.7-12-29.7-34.2
			c0-21.7,12.5-33.9,29.2-33.9C420.7,55.2,426.6,57.8,431.9,62.3z"/>
		<path id="XMLID_652_" class="st5" d="M454.8,121.6h-15.3V56.8h15.3V121.6z M471.4,85.9l22.4,35.7H476L455.3,87l20.6-30.2H492
			L471.4,85.9z"/>
		<path id="XMLID_655_" class="st5" d="M542,63.5l-7.1,8.3c-4.5-3.6-9-5.4-14.2-5.4c-5.3,0-8.7,2.2-8.7,6.4s2.4,5.8,12.5,9
			c12.3,3.9,19.3,9,19.3,21c0,12.1-9.5,20.5-25.7,20.5c-11.2,0-19.3-4.1-24.6-9.3l7.8-8.5c4.8,4,9.9,6.4,16.4,6.4
			c6.4,0,10.3-3,10.3-8c0-4.8-2.4-6.9-11.9-9.8c-14.5-4.5-19.8-10.5-19.8-20.1c0-11.4,9.9-18.7,23.4-18.7
			C529.5,55.2,536.3,58.1,542,63.5z"/>
		<path id="XMLID_657_" class="st5" d="M567.5,121.6h-15.3V56.8h15.3V121.6z"/>
	</g>
</g>
</svg>
